<?xml version="1.0" encoding="UTF-8"?>
<!--
    SPDX-FileCopyrightText: 2025 thenameisluk
    SPDX-FileCopyrightText: 2025 Aleksandr Mezin <mezin.alexander@gmail.com>
    SPDX-License-Identifier: CC0-1.0
-->
<svg height="128px" viewBox="0 0 128 128" width="128px" xmlns="http://www.w3.org/2000/svg" xmlns:xlink="http://www.w3.org/1999/xlink">
    <defs>
        <filter id="a" height="100%" width="100%" x="0%" y="0%">
            <feColorMatrix color-interpolation-filters="sRGB" values="0 0 0 0 1 0 0 0 0 1 0 0 0 0 1 0 0 0 1 0"/>
        </filter>
        <linearGradient id="b" gradientTransform="matrix(0.232143 0 0 0.328947 -8.56691 343.826965)" gradientUnits="userSpaceOnUse" spreadMethod="repeat" x1="88.595886" x2="536.595886" y1="-449.394012" y2="-449.394012">
            <stop offset="0" stop-color="#77767b"/>
            <stop offset="0.0384615" stop-color="#c0bfbc"/>
            <stop offset="0.0768555" stop-color="#9a9996"/>
            <stop offset="0.923077" stop-color="#9a9996"/>
            <stop offset="0.961538" stop-color="#c0bfbc"/>
            <stop offset="1" stop-color="#77767b"/>
        </linearGradient>
        <pattern id="c" height="16" patternTransform="matrix(1 0 0 1 4.246059 -163.708893)" patternUnits="userSpaceOnUse" viewBox="0 0 16 16" width="16">
            <use xlink:href="#f"/>
        </pattern>
        <linearGradient id="d" gradientUnits="userSpaceOnUse" x1="64" x2="64" y1="24" y2="112">
            <stop offset="0" stop-color="#241f31"/>
            <stop offset="1" stop-color="#241f31" stop-opacity="0"/>
        </linearGradient>
        <clipPath id="e">
            <rect height="16" width="16"/>
        </clipPath>
        <g id="f" clip-path="url(#e)">
            <path d="m 0 0 h 8 v 8 h -8 z m 0 0" fill="#3d3846"/>
            <path d="m 8 8 h 8 v 8 h -8 z m 0 0" fill="#3d3846"/>
        </g>
        <pattern id="g" height="16" patternTransform="matrix(1 0 0 1 4.246059 -163.708893)" patternUnits="userSpaceOnUse" viewBox="0 0 16 16" width="16">
            <use xlink:href="#f"/>
        </pattern>
        <clipPath id="h">
            <rect height="128" width="128"/>
        </clipPath>
        <clipPath id="i">
            <rect height="128" width="128"/>
        </clipPath>
        <mask id="j">
            <g filter="url(#a)">
                <g clip-path="url(#i)" filter="url(#a)">
                    <g clip-path="url(#h)">
                        <path d="m 114 16 c 1.105469 0 2 0.894531 2 2 v 12 c 0 1.105469 -0.894531 2 -2 2 s -2 -0.894531 -2 -2 v -12 c 0 -1.105469 0.894531 -2 2 -2 z m 0 0" fill="#deddda"/>
                        <path d="m 14 16 c 1.105469 0 2 0.894531 2 2 v 12 c 0 1.105469 -0.894531 2 -2 2 s -2 -0.894531 -2 -2 v -12 c 0 -1.105469 0.894531 -2 2 -2 z m 0 0" fill="#deddda"/>
                        <path d="m 20 96 h 88 c 4.417969 0 8 3.582031 8 8 v 4 c 0 4.417969 -3.582031 8 -8 8 h -88 c -4.417969 0 -8 -3.582031 -8 -8 v -4 c 0 -4.417969 3.582031 -8 8 -8 z m 0 0" fill="url(#b)"/>
                        <path d="m 116 28 v 76 c 0 4.433594 -3.566406 8 -8 8 h -88 c -4.433594 0 -8 -3.566406 -8 -8 v -76 z m 0 0" fill="#deddda"/>
                        <path d="m 112 20 v 84 c 0 2.214844 -1.785156 4 -4 4 h -88 c -2.214844 0 -4 -1.785156 -4 -4 v -84 l 8 8 l 8 -8 l 8 8 l 8 -8 l 8 8 l 8 -8 l 8 8 l 8 -8 l 8 8 l 8 -8 l 8 8 z m 0 0" fill="#241f31"/>
                        <path d="m 20 28 h 88 v 80 h -88 z m 0 0" fill="url(#g)"/>
                        <path d="m 20 28 h 88 v 80 h -88 z m 0 0" fill="url(#d)"/>
                        <path d="m 45.5 92.5 h 5 c 0.550781 0 1 0.449219 1 1 v 5 c 0 0.550781 -0.449219 1 -1 1 h -5 c -0.550781 0 -1 -0.449219 -1 -1 v -5 c 0 -0.550781 0.449219 -1 1 -1 z m 0 0" fill="#f8e45c"/>
                        <path d="m 53.5 92.5 h 5 c 0.550781 0 1 0.449219 1 1 v 5 c 0 0.550781 -0.449219 1 -1 1 h -5 c -0.550781 0 -1 -0.449219 -1 -1 v -5 c 0 -0.550781 0.449219 -1 1 -1 z m 0 0" fill="#f8e45c"/>
                        <path d="m 61.5 92.5 h 5 c 0.550781 0 1 0.449219 1 1 v 5 c 0 0.550781 -0.449219 1 -1 1 h -5 c -0.550781 0 -1 -0.449219 -1 -1 v -5 c 0 -0.550781 0.449219 -1 1 -1 z m 0 0" fill="#f8e45c"/>
                        <path d="m 61.5 84.5 h 5 c 0.550781 0 1 0.449219 1 1 v 5 c 0 0.550781 -0.449219 1 -1 1 h -5 c -0.550781 0 -1 -0.449219 -1 -1 v -5 c 0 -0.550781 0.449219 -1 1 -1 z m 0 0" fill="#f8e45c"/>
                        <path d="m 61.5 76.5 h 5 c 0.550781 0 1 0.449219 1 1 v 5 c 0 0.550781 -0.449219 1 -1 1 h -5 c -0.550781 0 -1 -0.449219 -1 -1 v -5 c 0 -0.550781 0.449219 -1 1 -1 z m 0 0" fill="#f8e45c"/>
                        <path d="m 61.5 68.5 h 5 c 0.550781 0 1 0.449219 1 1 v 5 c 0 0.550781 -0.449219 1 -1 1 h -5 c -0.550781 0 -1 -0.449219 -1 -1 v -5 c 0 -0.550781 0.449219 -1 1 -1 z m 0 0" fill="#f8e45c"/>
                        <path d="m 61.5 60.5 h 5 c 0.550781 0 1 0.449219 1 1 v 5 c 0 0.550781 -0.449219 1 -1 1 h -5 c -0.550781 0 -1 -0.449219 -1 -1 v -5 c 0 -0.550781 0.449219 -1 1 -1 z m 0 0" fill="#f8e45c"/>
                        <path d="m 45.5 84.5 h 5 c 0.550781 0 1 0.449219 1 1 v 5 c 0 0.550781 -0.449219 1 -1 1 h -5 c -0.550781 0 -1 -0.449219 -1 -1 v -5 c 0 -0.550781 0.449219 -1 1 -1 z m 0 0" fill="#f8e45c"/>
                        <path d="m 45.5 76.5 h 5 c 0.550781 0 1 0.449219 1 1 v 5 c 0 0.550781 -0.449219 1 -1 1 h -5 c -0.550781 0 -1 -0.449219 -1 -1 v -5 c 0 -0.550781 0.449219 -1 1 -1 z m 0 0" fill="#f8e45c"/>
                        <path d="m 53.5 76.5 h 5 c 0.550781 0 1 0.449219 1 1 v 5 c 0 0.550781 -0.449219 1 -1 1 h -5 c -0.550781 0 -1 -0.449219 -1 -1 v -5 c 0 -0.550781 0.449219 -1 1 -1 z m 0 0" fill="#f8e45c"/>
                        <path d="m 29.5 76.5 h 5 c 0.550781 0 1 0.449219 1 1 v 5 c 0 0.550781 -0.449219 1 -1 1 h -5 c -0.550781 0 -1 -0.449219 -1 -1 v -5 c 0 -0.550781 0.449219 -1 1 -1 z m 0 0" fill="#e01b24"/>
                        <path d="m 21.507812 84.5 h 5 c 0.550782 0 1 0.449219 1 1 v 5 c 0 0.550781 -0.449218 1 -1 1 h -5 c -0.550781 0 -1 -0.449219 -1 -1 v -5 c 0 -0.550781 0.449219 -1 1 -1 z m 0 0" fill="#e01b24"/>
                        <path d="m 21.5 68.5 h 5 c 0.550781 0 1 0.449219 1 1 v 5 c 0 0.550781 -0.449219 1 -1 1 h -5 c -0.550781 0 -1 -0.449219 -1 -1 v -5 c 0 -0.550781 0.449219 -1 1 -1 z m 0 0" fill="#e01b24"/>
                        <path d="m 77.5 92.5 h 5 c 0.550781 0 1 0.449219 1 1 v 5 c 0 0.550781 -0.449219 1 -1 1 h -5 c -0.550781 0 -1 -0.449219 -1 -1 v -5 c 0 -0.550781 0.449219 -1 1 -1 z m 0 0" fill="#f8e45c"/>
                        <path d="m 85.5 92.5 h 5 c 0.550781 0 1 0.449219 1 1 v 5 c 0 0.550781 -0.449219 1 -1 1 h -5 c -0.550781 0 -1 -0.449219 -1 -1 v -5 c 0 -0.550781 0.449219 -1 1 -1 z m 0 0" fill="#f8e45c"/>
                        <path d="m 93.5 92.5 h 5 c 0.550781 0 1 0.449219 1 1 v 5 c 0 0.550781 -0.449219 1 -1 1 h -5 c -0.550781 0 -1 -0.449219 -1 -1 v -5 c 0 -0.550781 0.449219 -1 1 -1 z m 0 0" fill="#f8e45c"/>
                        <path d="m 93.5 84.5 h 5 c 0.550781 0 1 0.449219 1 1 v 5 c 0 0.550781 -0.449219 1 -1 1 h -5 c -0.550781 0 -1 -0.449219 -1 -1 v -5 c 0 -0.550781 0.449219 -1 1 -1 z m 0 0" fill="#f8e45c"/>
                        <path d="m 93.5 76.5 h 5 c 0.550781 0 1 0.449219 1 1 v 5 c 0 0.550781 -0.449219 1 -1 1 h -5 c -0.550781 0 -1 -0.449219 -1 -1 v -5 c 0 -0.550781 0.449219 -1 1 -1 z m 0 0" fill="#f8e45c"/>
                        <path d="m 93.5 68.5 h 5 c 0.550781 0 1 0.449219 1 1 v 5 c 0 0.550781 -0.449219 1 -1 1 h -5 c -0.550781 0 -1 -0.449219 -1 -1 v -5 c 0 -0.550781 0.449219 -1 1 -1 z m 0 0" fill="#f8e45c"/>
                        <path d="m 93.5 60.5 h 5 c 0.550781 0 1 0.449219 1 1 v 5 c 0 0.550781 -0.449219 1 -1 1 h -5 c -0.550781 0 -1 -0.449219 -1 -1 v -5 c 0 -0.550781 0.449219 -1 1 -1 z m 0 0" fill="#f8e45c"/>
                        <path d="m 77.5 84.5 h 5 c 0.550781 0 1 0.449219 1 1 v 5 c 0 0.550781 -0.449219 1 -1 1 h -5 c -0.550781 0 -1 -0.449219 -1 -1 v -5 c 0 -0.550781 0.449219 -1 1 -1 z m 0 0" fill="#f8e45c"/>
                        <path d="m 77.5 76.5 h 5 c 0.550781 0 1 0.449219 1 1 v 5 c 0 0.550781 -0.449219 1 -1 1 h -5 c -0.550781 0 -1 -0.449219 -1 -1 v -5 c 0 -0.550781 0.449219 -1 1 -1 z m 0 0" fill="#f8e45c"/>
                        <path d="m 85.5 76.5 h 5 c 0.550781 0 1 0.449219 1 1 v 5 c 0 0.550781 -0.449219 1 -1 1 h -5 c -0.550781 0 -1 -0.449219 -1 -1 v -5 c 0 -0.550781 0.449219 -1 1 -1 z m 0 0" fill="#f8e45c"/>
                    </g>
                </g>
            </g>
        </mask>
        <mask id="k">
            <g filter="url(#a)">
                <rect fill-opacity="0.8" height="184.32" width="184.32" x="-28.16" y="-28.16"/>
            </g>
        </mask>
        <linearGradient id="l" gradientTransform="matrix(0 0.37 -0.98462 0 295.38501 -30.360001)" gradientUnits="userSpaceOnUse" x1="300" x2="428" y1="235" y2="235">
            <stop offset="0" stop-color="#f9f06b"/>
            <stop offset="1" stop-color="#f5c211"/>
        </linearGradient>
        <clipPath id="m">
            <rect height="128" width="128"/>
        </clipPath>
        <clipPath id="n">
            <rect height="128" width="128"/>
        </clipPath>
    </defs>
    <path d="m 114 16 c 1.105469 0 2 0.894531 2 2 v 12 c 0 1.105469 -0.894531 2 -2 2 s -2 -0.894531 -2 -2 v -12 c 0 -1.105469 0.894531 -2 2 -2 z m 0 0" fill="#deddda"/>
    <path d="m 14 16 c 1.105469 0 2 0.894531 2 2 v 12 c 0 1.105469 -0.894531 2 -2 2 s -2 -0.894531 -2 -2 v -12 c 0 -1.105469 0.894531 -2 2 -2 z m 0 0" fill="#deddda"/>
    <path d="m 20 96 h 88 c 4.417969 0 8 3.582031 8 8 v 4 c 0 4.417969 -3.582031 8 -8 8 h -88 c -4.417969 0 -8 -3.582031 -8 -8 v -4 c 0 -4.417969 3.582031 -8 8 -8 z m 0 0" fill="url(#b)"/>
    <path d="m 116 28 v 76 c 0 4.433594 -3.566406 8 -8 8 h -88 c -4.433594 0 -8 -3.566406 -8 -8 v -76 z m 0 0" fill="#deddda"/>
    <path d="m 112 20 v 84 c 0 2.214844 -1.785156 4 -4 4 h -88 c -2.214844 0 -4 -1.785156 -4 -4 v -84 l 8 8 l 8 -8 l 8 8 l 8 -8 l 8 8 l 8 -8 l 8 8 l 8 -8 l 8 8 l 8 -8 l 8 8 z m 0 0" fill="#241f31"/>
    <path d="m 20 28 h 88 v 80 h -88 z m 0 0" fill="url(#c)"/>
    <path d="m 20 28 h 88 v 80 h -88 z m 0 0" fill="url(#d)"/>
    <g fill="#f8e45c">
        <path d="m 45.5 92.5 h 5 c 0.550781 0 1 0.449219 1 1 v 5 c 0 0.550781 -0.449219 1 -1 1 h -5 c -0.550781 0 -1 -0.449219 -1 -1 v -5 c 0 -0.550781 0.449219 -1 1 -1 z m 0 0"/>
        <path d="m 53.5 92.5 h 5 c 0.550781 0 1 0.449219 1 1 v 5 c 0 0.550781 -0.449219 1 -1 1 h -5 c -0.550781 0 -1 -0.449219 -1 -1 v -5 c 0 -0.550781 0.449219 -1 1 -1 z m 0 0"/>
        <path d="m 61.5 92.5 h 5 c 0.550781 0 1 0.449219 1 1 v 5 c 0 0.550781 -0.449219 1 -1 1 h -5 c -0.550781 0 -1 -0.449219 -1 -1 v -5 c 0 -0.550781 0.449219 -1 1 -1 z m 0 0"/>
        <path d="m 61.5 84.5 h 5 c 0.550781 0 1 0.449219 1 1 v 5 c 0 0.550781 -0.449219 1 -1 1 h -5 c -0.550781 0 -1 -0.449219 -1 -1 v -5 c 0 -0.550781 0.449219 -1 1 -1 z m 0 0"/>
        <path d="m 61.5 76.5 h 5 c 0.550781 0 1 0.449219 1 1 v 5 c 0 0.550781 -0.449219 1 -1 1 h -5 c -0.550781 0 -1 -0.449219 -1 -1 v -5 c 0 -0.550781 0.449219 -1 1 -1 z m 0 0"/>
        <path d="m 61.5 68.5 h 5 c 0.550781 0 1 0.449219 1 1 v 5 c 0 0.550781 -0.449219 1 -1 1 h -5 c -0.550781 0 -1 -0.449219 -1 -1 v -5 c 0 -0.550781 0.449219 -1 1 -1 z m 0 0"/>
        <path d="m 61.5 60.5 h 5 c 0.550781 0 1 0.449219 1 1 v 5 c 0 0.550781 -0.449219 1 -1 1 h -5 c -0.550781 0 -1 -0.449219 -1 -1 v -5 c 0 -0.550781 0.449219 -1 1 -1 z m 0 0"/>
        <path d="m 45.5 84.5 h 5 c 0.550781 0 1 0.449219 1 1 v 5 c 0 0.550781 -0.449219 1 -1 1 h -5 c -0.550781 0 -1 -0.449219 -1 -1 v -5 c 0 -0.550781 0.449219 -1 1 -1 z m 0 0"/>
        <path d="m 45.5 76.5 h 5 c 0.550781 0 1 0.449219 1 1 v 5 c 0 0.550781 -0.449219 1 -1 1 h -5 c -0.550781 0 -1 -0.449219 -1 -1 v -5 c 0 -0.550781 0.449219 -1 1 -1 z m 0 0"/>
        <path d="m 53.5 76.5 h 5 c 0.550781 0 1 0.449219 1 1 v 5 c 0 0.550781 -0.449219 1 -1 1 h -5 c -0.550781 0 -1 -0.449219 -1 -1 v -5 c 0 -0.550781 0.449219 -1 1 -1 z m 0 0"/>
    </g>
    <path d="m 29.5 76.5 h 5 c 0.550781 0 1 0.449219 1 1 v 5 c 0 0.550781 -0.449219 1 -1 1 h -5 c -0.550781 0 -1 -0.449219 -1 -1 v -5 c 0 -0.550781 0.449219 -1 1 -1 z m 0 0" fill="#e01b24"/>
    <path d="m 21.507812 84.5 h 5 c 0.550782 0 1 0.449219 1 1 v 5 c 0 0.550781 -0.449218 1 -1 1 h -5 c -0.550781 0 -1 -0.449219 -1 -1 v -5 c 0 -0.550781 0.449219 -1 1 -1 z m 0 0" fill="#e01b24"/>
    <path d="m 21.5 68.5 h 5 c 0.550781 0 1 0.449219 1 1 v 5 c 0 0.550781 -0.449219 1 -1 1 h -5 c -0.550781 0 -1 -0.449219 -1 -1 v -5 c 0 -0.550781 0.449219 -1 1 -1 z m 0 0" fill="#e01b24"/>
    <path d="m 77.5 92.5 h 5 c 0.550781 0 1 0.449219 1 1 v 5 c 0 0.550781 -0.449219 1 -1 1 h -5 c -0.550781 0 -1 -0.449219 -1 -1 v -5 c 0 -0.550781 0.449219 -1 1 -1 z m 0 0" fill="#f8e45c"/>
    <path d="m 85.5 92.5 h 5 c 0.550781 0 1 0.449219 1 1 v 5 c 0 0.550781 -0.449219 1 -1 1 h -5 c -0.550781 0 -1 -0.449219 -1 -1 v -5 c 0 -0.550781 0.449219 -1 1 -1 z m 0 0" fill="#f8e45c"/>
    <path d="m 93.5 92.5 h 5 c 0.550781 0 1 0.449219 1 1 v 5 c 0 0.550781 -0.449219 1 -1 1 h -5 c -0.550781 0 -1 -0.449219 -1 -1 v -5 c 0 -0.550781 0.449219 -1 1 -1 z m 0 0" fill="#f8e45c"/>
    <path d="m 93.5 84.5 h 5 c 0.550781 0 1 0.449219 1 1 v 5 c 0 0.550781 -0.449219 1 -1 1 h -5 c -0.550781 0 -1 -0.449219 -1 -1 v -5 c 0 -0.550781 0.449219 -1 1 -1 z m 0 0" fill="#f8e45c"/>
    <path d="m 93.5 76.5 h 5 c 0.550781 0 1 0.449219 1 1 v 5 c 0 0.550781 -0.449219 1 -1 1 h -5 c -0.550781 0 -1 -0.449219 -1 -1 v -5 c 0 -0.550781 0.449219 -1 1 -1 z m 0 0" fill="#f8e45c"/>
    <path d="m 93.5 68.5 h 5 c 0.550781 0 1 0.449219 1 1 v 5 c 0 0.550781 -0.449219 1 -1 1 h -5 c -0.550781 0 -1 -0.449219 -1 -1 v -5 c 0 -0.550781 0.449219 -1 1 -1 z m 0 0" fill="#f8e45c"/>
    <path d="m 93.5 60.5 h 5 c 0.550781 0 1 0.449219 1 1 v 5 c 0 0.550781 -0.449219 1 -1 1 h -5 c -0.550781 0 -1 -0.449219 -1 -1 v -5 c 0 -0.550781 0.449219 -1 1 -1 z m 0 0" fill="#f8e45c"/>
    <path d="m 77.5 84.5 h 5 c 0.550781 0 1 0.449219 1 1 v 5 c 0 0.550781 -0.449219 1 -1 1 h -5 c -0.550781 0 -1 -0.449219 -1 -1 v -5 c 0 -0.550781 0.449219 -1 1 -1 z m 0 0" fill="#f8e45c"/>
    <path d="m 77.5 76.5 h 5 c 0.550781 0 1 0.449219 1 1 v 5 c 0 0.550781 -0.449219 1 -1 1 h -5 c -0.550781 0 -1 -0.449219 -1 -1 v -5 c 0 -0.550781 0.449219 -1 1 -1 z m 0 0" fill="#f8e45c"/>
    <path d="m 85.5 76.5 h 5 c 0.550781 0 1 0.449219 1 1 v 5 c 0 0.550781 -0.449219 1 -1 1 h -5 c -0.550781 0 -1 -0.449219 -1 -1 v -5 c 0 -0.550781 0.449219 -1 1 -1 z m 0 0" fill="#f8e45c"/>
    <g mask="url(#j)">
        <g clip-path="url(#n)">
            <g mask="url(#k)">
                <g clip-path="url(#m)">
                    <path d="m 128 80.640625 v 47.359375 h -128 v -47.359375 z m 0 0" fill="url(#l)"/>
                    <path d="m 13.308594 80.640625 l 47.355468 47.359375 h 21.214844 l -47.359375 -47.359375 z m 42.421875 0 l 47.363281 47.359375 h 21.214844 l -47.363282 -47.359375 z m 42.429687 0 l 29.839844 29.839844 v -21.210938 l -8.628906 -8.628906 z m -98.160156 7.90625 v 21.214844 l 18.238281 18.238281 h 21.214844 z m 0 0"/>
                </g>
            </g>
        </g>
    </g>
</svg>
